<svg width="24" height="24" viewBox="0 0 24 24" fill="none" xmlns="http://www.w3.org/2000/svg">
<path d="M0.969084 0H23.029C23.5654 0 23.998 0.433594 23.998 0.966797V23.0312C23.998 23.5664 23.5634 23.998 23.029 23.998C22.7607 23.998 22.518 23.8887 22.3418 23.7129L11.9736 14.8027L1.60144 23.7617C1.19814 24.1094 0.587324 24.0664 0.236887 23.6641C0.0783098 23.4824 0.00195775 23.2559 0.00195775 23.0332H0V0.966797C0 0.433594 0.434619 0 0.969084 0ZM22.0599 1.93555H1.94013V20.9199L11.3314 12.8066C11.6877 12.4902 12.234 12.4785 12.6059 12.7988L22.0618 20.9258V1.93555H22.0599Z" fill="#121212"/>
</svg>
