<svg width="32" height="32" viewBox="0 0 32 32" fill="none" xmlns="http://www.w3.org/2000/svg">
<path d="M22.8702 20.1258H21.4248L20.9125 19.6318C22.7055 17.546 23.785 14.8382 23.785 11.8925C23.785 5.32419 18.4608 0 11.8925 0C5.32419 0 0 5.32419 0 11.8925C0 18.4608 5.32419 23.785 11.8925 23.785C14.8382 23.785 17.546 22.7055 19.6318 20.9125L20.1258 21.4248V22.8702L29.2739 32L32 29.2739L22.8702 20.1258ZM11.8925 20.1258C7.33676 20.1258 3.65923 16.4483 3.65923 11.8925C3.65923 7.33676 7.33676 3.65923 11.8925 3.65923C16.4483 3.65923 20.1258 7.33676 20.1258 11.8925C20.1258 16.4483 16.4483 20.1258 11.8925 20.1258Z" fill="#121212"/>
</svg>
